<?xml version="1.0" encoding="UTF-8" standalone="no"?>
<!-- Generator: Adobe Illustrator 23.0.1, SVG Export Plug-In . SVG Version: 6.00 Build 0)  -->

<svg
   version="1.1"
   id="Layer_1"
   x="0px"
   y="0px"
   viewBox="0 0 1859.85 341.85001"
   xml:space="preserve"
   width="1859.85"
   height="341.85001"
   xmlns="http://www.w3.org/2000/svg"
   xmlns:svg="http://www.w3.org/2000/svg"><defs
   id="defs1" />
<style
   type="text/css"
   id="style1">
	.st0{fill:#b2ff33;}
</style>
<g
   id="SHURE_Logo_w_x2F_Tagline__x28_RGB_x29_"
   transform="scale(15)">
	
	<path
   id="SHURE_Wordmark_2_"
   class="st0"
   d="m 100.15,19.89 -0.36,2.9 -15.87,-9.49 -0.81,6.59 h -8.45 l 1.6,-12.96 h 13.91 l 0.3,-2.44 H 76.56 l 0.55,-4.48 h 17.7 c 2.63,0 4.58,2.57 4.51,4.79 -0.07,2.04 -1.12,3.81 -2.77,4.96 -1.11,0.77 -3.14,1.35 -3.14,1.35 l 7.35,3.73 1.83,-14.83 h 21.4 l -0.55,4.48 h -11.53 l -0.3,2.44 h 11.53 l -0.61,4.94 H 111 l -0.33,2.64 h 11.53 l -0.66,5.38 z M 64.51,0.01 62.82,13.74 H 60.21 L 61.9,0.01 h -9.85 l -1.28,10.37 c -0.71,6.47 3.21,10.37 9.58,10.37 h 0.7 C 68.27,20.42 72.41,15.22 73.18,10.38 L 74.46,0.01 Z M 35.85,6.92 36.7,0 h -9.67 l -2.45,19.88 h 9.67 l 0.86,-6.97 h 3.03 l -0.86,6.97 h 9.68 L 49.41,0 H 39.73 L 38.88,6.92 Z M 16.86,19.89 c 4.41,0.01 6.85,-3.38 6.87,-6.59 0.01,-1.73 -0.64,-2.9 -2.6,-3.84 C 19.3,8.6 12.61,5.77 9.58,4.49 H 24.02 L 24.57,0.01 H 7.43 c -3.23,0 -5.78,2.82 -5.78,5.92 0,1.79 0.88,3.55 2.96,4.58 l 9.79,4 H 0.66 L 0,19.89 Z" />
</g>
</svg>
